<svg width="48" height="48" viewBox="0 0 48 48" fill="none" xmlns="http://www.w3.org/2000/svg">
<circle cx="24" cy="24" r="24" fill="white"/>
<path d="M11.3938 14.2V13.048H11.7458L14.4338 13.112C15.9911 13.1333 17.6658 13.1333 19.4578 13.112L22.5618 13.048H22.9778V14.2V15.352H21.6338H20.2898L23.1058 21.976C24.9831 26.4347 25.9218 28.6533 25.9218 28.632L31.5538 15.416C31.5538 15.3733 31.1164 15.352 30.2418 15.352H28.8978V14.2V13.048H29.2178L31.5858 13.112C32.9511 13.1333 34.1991 13.1333 35.3298 13.112C36.6311 13.0693 37.2924 13.048 37.3138 13.048H37.5698V14.2V15.352H35.9378H34.2738L30.1778 25.048C27.4044 31.5333 26.0071 34.7973 25.9858 34.84C25.8791 35.0107 25.7084 35.1387 25.4738 35.224C25.2604 35.288 24.6951 35.2987 23.7778 35.256C23.6284 35.256 23.5324 35.2453 23.4898 35.224C23.2551 35.1387 23.0844 35.0107 22.9778 34.84C22.9564 34.7973 21.5591 31.5333 18.7858 25.048L14.6898 15.352H13.0258H11.3938V14.2Z" fill="#000216"/>
</svg>
