<svg width="34" height="34" viewBox="0 0 34 34" fill="none" xmlns="http://www.w3.org/2000/svg">
<path d="M21.8611 19.2421C21.8611 21.7228 19.8501 23 17.3695 23C14.8888 23 12.8778 21.7228 12.8778 19.2421C12.8778 16.7615 14.8888 14.7505 17.3695 14.7505C19.8501 14.7505 21.8611 16.7615 21.8611 19.2421Z" fill="#8A68C3"/>
<path d="M20.06 17.8635C22.4971 15.2486 21.9501 13.0606 21.4386 12.5046C19.7487 10.3033 14.6789 10.7035 13.2558 12.5046C12.6999 13.2014 12.1974 15.2486 14.6345 17.8635" stroke="#8A68C3" stroke-width="3"/>
<path d="M14.9236 18.5528C14.5695 20.0339 14.7544 21.3243 14.2766 21.2101C13.7988 21.0959 13.2131 19.6336 13.5672 18.1526C13.9212 16.6715 15.081 15.7325 15.5588 15.8467C16.0365 15.9609 15.2776 17.0718 14.9236 18.5528Z" fill="white"/>
<path d="M12.9945 12.7097C12.7322 13.1639 12.6692 13.5644 12.5226 13.4798C12.3761 13.3952 12.3237 12.8987 12.5859 12.4445C12.8482 11.9903 13.3232 11.7941 13.4697 11.8787C13.6162 11.9633 13.2567 12.2555 12.9945 12.7097Z" fill="white"/>
</svg>
