<svg width="34" height="34" viewBox="0 0 34 34" fill="none" xmlns="http://www.w3.org/2000/svg">
    <path d="M22.7143 15.4286C22.7143 16.2175 21.8254 11.7143 19.1429 11.7143C16.4603 11.7143 14.4286 14.6461 14.4286 13.8571C14.4286 13.0681 16.4603 11 19.1429 11C21.8254 11 22.7143 14.6396 22.7143 15.4286Z" fill="#120505"/>
    <circle cx="15.5715" cy="17.5714" r="5.42857" fill="#FF0000"/>
    <rect x="15.5676" y="11" width="4.28571" height="2.85714" transform="rotate(23.4956 15.5676 11)" fill="#FF0000"/>
    <path d="M22.5714 13.5715L22.7767 14.5789L23.5815 13.9392L23.0912 14.8428L24.119 14.8701L23.1625 15.2472L23.9323 15.9287L22.9572 15.6028L23.1089 16.6196L22.5714 15.7432L22.034 16.6196L22.1856 15.6028L21.2105 15.9287L21.9803 15.2472L21.0239 14.8701L22.0516 14.8428L21.5613 13.9392L22.3661 14.5789L22.5714 13.5715Z" fill="#FFE600"/>
    <path d="M22.5715 14.4285L22.6648 14.8864L23.0306 14.5956L22.8077 15.0063L23.2749 15.0187L22.8402 15.1901L23.1901 15.4999L22.7468 15.3518L22.8158 15.814L22.5715 15.4156L22.3272 15.814L22.3961 15.3518L21.9529 15.4999L22.3028 15.1901L21.868 15.0187L22.3352 15.0063L22.1123 14.5956L22.4781 14.8864L22.5715 14.4285Z" fill="#FFA500"/>
    <path d="M13.6313 14.8227C11.9914 15.7694 11.0619 16.9438 10.7858 16.4655C10.5096 15.9872 11.3103 14.0182 12.9501 13.0715C14.59 12.1247 15.3486 12.3686 15.6248 12.8469C15.9009 13.3252 15.2711 13.8759 13.6313 14.8227Z" fill="white"/>
    <path d="M15.7415 11.2857L16.2655 11.5136L15.7143 12.5714L15.2857 12.2857L15.7415 11.2857Z" fill="white"/>
</svg>
